<mxfile host="app.diagrams.net" agent="Mozilla/5.0 (Windows NT 10.0; Win64; x64) AppleWebKit/537.36 (KHTML, like Gecko) Chrome/137.0.0.0 Safari/537.36" version="27.1.6">
  <diagram name="Page-1" id="b520641d-4fe3-3701-9064-5fc419738815">
    <mxGraphModel dx="1426" dy="777" grid="1" gridSize="10" guides="1" tooltips="1" connect="1" arrows="1" fold="1" page="1" pageScale="1" pageWidth="1100" pageHeight="850" background="none" math="0" shadow="0">
      <root>
        <mxCell id="0" />
        <mxCell id="1" parent="0" />
        <mxCell id="KK2GNfCkV2JybxImIfIo-2" value="myQIMA" style="ellipse;shape=cloud;whiteSpace=wrap;html=1;fontSize=14;fontStyle=1" parent="1" vertex="1">
          <mxGeometry x="189" y="22" width="120" height="80" as="geometry" />
        </mxCell>
        <mxCell id="yvR9GkOpiEJK5_yl31AZ-13" value="" style="edgeStyle=orthogonalEdgeStyle;rounded=0;orthogonalLoop=1;jettySize=auto;html=1;" edge="1" parent="1" source="KK2GNfCkV2JybxImIfIo-4" target="KK2GNfCkV2JybxImIfIo-42">
          <mxGeometry relative="1" as="geometry" />
        </mxCell>
        <mxCell id="yvR9GkOpiEJK5_yl31AZ-32" value="1. when" style="edgeLabel;html=1;align=center;verticalAlign=middle;resizable=0;points=[];" vertex="1" connectable="0" parent="yvR9GkOpiEJK5_yl31AZ-13">
          <mxGeometry x="-0.1954" y="4" relative="1" as="geometry">
            <mxPoint as="offset" />
          </mxGeometry>
        </mxCell>
        <mxCell id="KK2GNfCkV2JybxImIfIo-4" value="psi-service" style="rounded=1;whiteSpace=wrap;html=1;fontStyle=1;fontSize=14;" parent="1" vertex="1">
          <mxGeometry x="356" y="155" width="120" height="60" as="geometry" />
        </mxCell>
        <mxCell id="yvR9GkOpiEJK5_yl31AZ-26" value="" style="edgeStyle=orthogonalEdgeStyle;rounded=0;orthogonalLoop=1;jettySize=auto;html=1;exitX=0.963;exitY=0.629;exitDx=0;exitDy=0;exitPerimeter=0;" edge="1" parent="1" source="KK2GNfCkV2JybxImIfIo-27" target="KK2GNfCkV2JybxImIfIo-60">
          <mxGeometry relative="1" as="geometry">
            <mxPoint x="760" y="760" as="sourcePoint" />
            <Array as="points">
              <mxPoint x="750" y="781" />
              <mxPoint x="750" y="607" />
            </Array>
          </mxGeometry>
        </mxCell>
        <mxCell id="yvR9GkOpiEJK5_yl31AZ-27" value="&lt;font&gt;6. response Ai Summary&lt;/font&gt;" style="edgeLabel;html=1;align=center;verticalAlign=middle;resizable=0;points=[];fontStyle=0" vertex="1" connectable="0" parent="yvR9GkOpiEJK5_yl31AZ-26">
          <mxGeometry x="-0.0702" y="-2" relative="1" as="geometry">
            <mxPoint x="-2" y="-26" as="offset" />
          </mxGeometry>
        </mxCell>
        <mxCell id="KK2GNfCkV2JybxImIfIo-27" value="data team" style="ellipse;shape=cloud;whiteSpace=wrap;html=1;fontSize=14;rounded=1;fontStyle=1;" parent="1" vertex="1">
          <mxGeometry x="602" y="698" width="108" height="97" as="geometry" />
        </mxCell>
        <mxCell id="KK2GNfCkV2JybxImIfIo-63" style="edgeStyle=orthogonalEdgeStyle;rounded=0;orthogonalLoop=1;jettySize=auto;html=1;entryX=0.933;entryY=0.513;entryDx=0;entryDy=0;entryPerimeter=0;exitX=0.075;exitY=0.513;exitDx=0;exitDy=0;exitPerimeter=0;" parent="1" source="KK2GNfCkV2JybxImIfIo-29" target="KK2GNfCkV2JybxImIfIo-60" edge="1">
          <mxGeometry relative="1" as="geometry">
            <mxPoint x="715" y="580" as="targetPoint" />
            <Array as="points" />
            <mxPoint x="900" y="640" as="sourcePoint" />
          </mxGeometry>
        </mxCell>
        <mxCell id="KK2GNfCkV2JybxImIfIo-64" value="4. get report info" style="edgeLabel;html=1;align=center;verticalAlign=middle;resizable=0;points=[];fontSize=11;" parent="KK2GNfCkV2JybxImIfIo-63" vertex="1" connectable="0">
          <mxGeometry x="0.1581" y="-3" relative="1" as="geometry">
            <mxPoint x="18" y="-8" as="offset" />
          </mxGeometry>
        </mxCell>
        <mxCell id="KK2GNfCkV2JybxImIfIo-29" value="QimaOne" style="ellipse;shape=cloud;whiteSpace=wrap;html=1;fontSize=14;rounded=1;fontStyle=1;" parent="1" vertex="1">
          <mxGeometry x="859" y="540" width="120" height="80" as="geometry" />
        </mxCell>
        <mxCell id="KK2GNfCkV2JybxImIfIo-35" value="&lt;font style=&quot;font-size: 14px;&quot;&gt;S3&lt;/font&gt;" style="sketch=0;points=[[0,0,0],[0.25,0,0],[0.5,0,0],[0.75,0,0],[1,0,0],[0,1,0],[0.25,1,0],[0.5,1,0],[0.75,1,0],[1,1,0],[0,0.25,0],[0,0.5,0],[0,0.75,0],[1,0.25,0],[1,0.5,0],[1,0.75,0]];outlineConnect=0;fontColor=#232F3E;fillColor=#7AA116;strokeColor=#ffffff;dashed=0;verticalLabelPosition=bottom;verticalAlign=top;align=center;html=1;fontSize=12;fontStyle=0;aspect=fixed;shape=mxgraph.aws4.resourceIcon;resIcon=mxgraph.aws4.s3;" parent="1" vertex="1">
          <mxGeometry x="376" y="530" width="79" height="100" as="geometry" />
        </mxCell>
        <mxCell id="yvR9GkOpiEJK5_yl31AZ-7" style="edgeStyle=orthogonalEdgeStyle;rounded=0;orthogonalLoop=1;jettySize=auto;html=1;exitX=1;exitY=0.5;exitDx=0;exitDy=0;" edge="1" parent="1" source="KK2GNfCkV2JybxImIfIo-42" target="yvR9GkOpiEJK5_yl31AZ-4">
          <mxGeometry relative="1" as="geometry">
            <mxPoint x="695" y="207" as="sourcePoint" />
          </mxGeometry>
        </mxCell>
        <mxCell id="yvR9GkOpiEJK5_yl31AZ-14" value="" style="edgeStyle=orthogonalEdgeStyle;rounded=0;orthogonalLoop=1;jettySize=auto;html=1;" edge="1" parent="1" source="KK2GNfCkV2JybxImIfIo-42" target="yvR9GkOpiEJK5_yl31AZ-3">
          <mxGeometry relative="1" as="geometry" />
        </mxCell>
        <mxCell id="KK2GNfCkV2JybxImIfIo-42" value="&lt;span style=&quot;font-size: 14px; font-weight: 700;&quot;&gt;send report to client&amp;nbsp;&lt;/span&gt;" style="rhombus;whiteSpace=wrap;html=1;" parent="1" vertex="1">
          <mxGeometry x="590" y="130" width="120" height="110" as="geometry" />
        </mxCell>
        <mxCell id="KK2GNfCkV2JybxImIfIo-52" style="edgeStyle=orthogonalEdgeStyle;rounded=0;orthogonalLoop=1;jettySize=auto;html=1;exitX=0.233;exitY=0.875;exitDx=0;exitDy=0;exitPerimeter=0;entryX=0.102;entryY=0.515;entryDx=0;entryDy=0;entryPerimeter=0;" parent="1" target="KK2GNfCkV2JybxImIfIo-27" edge="1" source="KK2GNfCkV2JybxImIfIo-60">
          <mxGeometry relative="1" as="geometry">
            <mxPoint x="580" y="574" as="sourcePoint" />
            <mxPoint x="698" y="720" as="targetPoint" />
            <Array as="points">
              <mxPoint x="560" y="610" />
              <mxPoint x="560" y="770" />
            </Array>
          </mxGeometry>
        </mxCell>
        <mxCell id="KK2GNfCkV2JybxImIfIo-54" value="5. send QIMAOne report" style="edgeLabel;html=1;align=center;verticalAlign=middle;resizable=0;points=[];fontSize=11;" parent="KK2GNfCkV2JybxImIfIo-52" vertex="1" connectable="0">
          <mxGeometry x="-0.0827" y="-4" relative="1" as="geometry">
            <mxPoint x="-6" y="-6" as="offset" />
          </mxGeometry>
        </mxCell>
        <mxCell id="yvR9GkOpiEJK5_yl31AZ-30" value="" style="edgeStyle=orthogonalEdgeStyle;rounded=0;orthogonalLoop=1;jettySize=auto;html=1;" edge="1" parent="1" source="KK2GNfCkV2JybxImIfIo-60" target="KK2GNfCkV2JybxImIfIo-35">
          <mxGeometry relative="1" as="geometry" />
        </mxCell>
        <mxCell id="yvR9GkOpiEJK5_yl31AZ-31" value="7. store AI Summary" style="edgeLabel;html=1;align=center;verticalAlign=middle;resizable=0;points=[];" vertex="1" connectable="0" parent="yvR9GkOpiEJK5_yl31AZ-30">
          <mxGeometry x="0.1852" y="-4" relative="1" as="geometry">
            <mxPoint x="14" y="-6" as="offset" />
          </mxGeometry>
        </mxCell>
        <mxCell id="KK2GNfCkV2JybxImIfIo-60" value="Echange" style="ellipse;shape=cloud;whiteSpace=wrap;html=1;fontSize=14;rounded=1;fontStyle=1;" parent="1" vertex="1">
          <mxGeometry x="590" y="540" width="120" height="80" as="geometry" />
        </mxCell>
        <mxCell id="yvR9GkOpiEJK5_yl31AZ-11" value="" style="edgeStyle=orthogonalEdgeStyle;rounded=0;orthogonalLoop=1;jettySize=auto;html=1;" edge="1" parent="1" source="yvR9GkOpiEJK5_yl31AZ-3" target="yvR9GkOpiEJK5_yl31AZ-10">
          <mxGeometry relative="1" as="geometry" />
        </mxCell>
        <mxCell id="yvR9GkOpiEJK5_yl31AZ-33" value="2. send msg to queue" style="edgeLabel;html=1;align=center;verticalAlign=middle;resizable=0;points=[];" vertex="1" connectable="0" parent="yvR9GkOpiEJK5_yl31AZ-11">
          <mxGeometry x="-0.5652" y="-3" relative="1" as="geometry">
            <mxPoint y="10" as="offset" />
          </mxGeometry>
        </mxCell>
        <mxCell id="yvR9GkOpiEJK5_yl31AZ-3" value="Is QIMAOne" style="rhombus;whiteSpace=wrap;html=1;" vertex="1" parent="1">
          <mxGeometry x="610" y="280" width="80" height="80" as="geometry" />
        </mxCell>
        <mxCell id="yvR9GkOpiEJK5_yl31AZ-9" value="" style="edgeStyle=orthogonalEdgeStyle;rounded=0;orthogonalLoop=1;jettySize=auto;html=1;" edge="1" parent="1" source="yvR9GkOpiEJK5_yl31AZ-4" target="yvR9GkOpiEJK5_yl31AZ-8">
          <mxGeometry relative="1" as="geometry" />
        </mxCell>
        <mxCell id="yvR9GkOpiEJK5_yl31AZ-4" value="Is QSP" style="rhombus;whiteSpace=wrap;html=1;" vertex="1" parent="1">
          <mxGeometry x="779" y="280" width="80" height="80" as="geometry" />
        </mxCell>
        <mxCell id="yvR9GkOpiEJK5_yl31AZ-8" value="TODO" style="ellipse;whiteSpace=wrap;html=1;" vertex="1" parent="1">
          <mxGeometry x="929" y="280" width="80" height="80" as="geometry" />
        </mxCell>
        <mxCell id="yvR9GkOpiEJK5_yl31AZ-15" value="" style="edgeStyle=orthogonalEdgeStyle;rounded=0;orthogonalLoop=1;jettySize=auto;html=1;" edge="1" parent="1" source="yvR9GkOpiEJK5_yl31AZ-10" target="KK2GNfCkV2JybxImIfIo-60">
          <mxGeometry relative="1" as="geometry" />
        </mxCell>
        <mxCell id="yvR9GkOpiEJK5_yl31AZ-34" value="3. receive and&amp;nbsp;consumer msg" style="edgeLabel;html=1;align=center;verticalAlign=middle;resizable=0;points=[];" vertex="1" connectable="0" parent="yvR9GkOpiEJK5_yl31AZ-15">
          <mxGeometry x="-0.2881" y="1" relative="1" as="geometry">
            <mxPoint y="6" as="offset" />
          </mxGeometry>
        </mxCell>
        <mxCell id="yvR9GkOpiEJK5_yl31AZ-10" value="message-service" style="rounded=1;whiteSpace=wrap;html=1;fontSize=14;fontStyle=1" vertex="1" parent="1">
          <mxGeometry x="590" y="421" width="120" height="60" as="geometry" />
        </mxCell>
        <mxCell id="yvR9GkOpiEJK5_yl31AZ-16" value="public-api" style="rounded=1;whiteSpace=wrap;html=1;fontSize=14;fontStyle=1" vertex="1" parent="1">
          <mxGeometry x="186" y="155" width="120" height="60" as="geometry" />
        </mxCell>
        <mxCell id="yvR9GkOpiEJK5_yl31AZ-35" value="" style="endArrow=classic;startArrow=classic;html=1;rounded=0;entryX=0.483;entryY=0.988;entryDx=0;entryDy=0;entryPerimeter=0;exitX=0.5;exitY=0;exitDx=0;exitDy=0;" edge="1" parent="1" source="yvR9GkOpiEJK5_yl31AZ-16" target="KK2GNfCkV2JybxImIfIo-2">
          <mxGeometry width="50" height="50" relative="1" as="geometry">
            <mxPoint x="210" y="140" as="sourcePoint" />
            <mxPoint x="260" y="90" as="targetPoint" />
          </mxGeometry>
        </mxCell>
        <mxCell id="yvR9GkOpiEJK5_yl31AZ-38" value="8. get Ai Summary" style="edgeLabel;html=1;align=center;verticalAlign=middle;resizable=0;points=[];" vertex="1" connectable="0" parent="yvR9GkOpiEJK5_yl31AZ-35">
          <mxGeometry x="0.0739" y="2" relative="1" as="geometry">
            <mxPoint as="offset" />
          </mxGeometry>
        </mxCell>
        <mxCell id="yvR9GkOpiEJK5_yl31AZ-36" value="" style="endArrow=classic;startArrow=classic;html=1;rounded=0;entryX=1;entryY=0.5;entryDx=0;entryDy=0;exitX=0;exitY=0.5;exitDx=0;exitDy=0;" edge="1" parent="1" source="KK2GNfCkV2JybxImIfIo-4" target="yvR9GkOpiEJK5_yl31AZ-16">
          <mxGeometry width="50" height="50" relative="1" as="geometry">
            <mxPoint x="320" y="234" as="sourcePoint" />
            <mxPoint x="321" y="180" as="targetPoint" />
          </mxGeometry>
        </mxCell>
        <mxCell id="yvR9GkOpiEJK5_yl31AZ-37" value="" style="endArrow=classic;startArrow=classic;html=1;rounded=0;entryX=0.5;entryY=1;entryDx=0;entryDy=0;" edge="1" parent="1" source="KK2GNfCkV2JybxImIfIo-35" target="KK2GNfCkV2JybxImIfIo-4">
          <mxGeometry width="50" height="50" relative="1" as="geometry">
            <mxPoint x="530" y="360" as="sourcePoint" />
            <mxPoint x="580" y="310" as="targetPoint" />
          </mxGeometry>
        </mxCell>
        <mxCell id="yvR9GkOpiEJK5_yl31AZ-39" value="9. get Ai Summary" style="edgeLabel;html=1;align=center;verticalAlign=middle;resizable=0;points=[];" vertex="1" connectable="0" parent="1">
          <mxGeometry x="410" y="370" as="geometry" />
        </mxCell>
      </root>
    </mxGraphModel>
  </diagram>
</mxfile>
